<?xml version="1.0" standalone="no"?><!DOCTYPE svg PUBLIC "-//W3C//DTD SVG 1.1//EN" "http://www.w3.org/Graphics/SVG/1.1/DTD/svg11.dtd"><svg t="1645767815390" class="icon" viewBox="0 0 1024 1024" version="1.1" xmlns="http://www.w3.org/2000/svg" p-id="7889" xmlns:xlink="http://www.w3.org/1999/xlink" width="200" height="200"><defs><style type="text/css"></style></defs><path d="M96 896H960v-64H128V0H64v864l32 32zM192 736v-512l32-32h128l32 32v512l-32 32h-128l-32-32z m128-32V256H256v448h64z m384-608v640l32 32h128l32-32v-640l-32-32h-128l-32 32z m128 32v576h-64V128h64z m-384 608v-384l32-32h128l32 32v384l-32 32h-128l-32-32z m128-32V384H512v320h64z" p-id="7890" fill="#ffffff"></path></svg>